<svg width="64" height="64" viewBox="0 0 64 64" fill="none" xmlns="http://www.w3.org/2000/svg">
<rect width="64" height="64" fill="#0F0F13"/>
<mask id="path-1-outside-1_0_1" maskUnits="userSpaceOnUse" x="4" y="19" width="60" height="31" fill="black">
<rect fill="white" x="4" y="19" width="60" height="31"/>
<path d="M13.452 43.44C10.548 42.288 8.58 40.824 7.548 39.048C7.548 36.408 8.328 33.528 9.888 30.408C11.448 27.288 13.2 25.224 15.144 24.216C15.96 24.216 16.872 24.264 17.88 24.36C20.544 24.216 22.824 23.928 24.72 23.496L25.692 23.28C24.732 26.448 23.964 29.82 23.388 33.396C21.276 32.46 19.452 31.176 17.916 29.544C16.068 32.256 14.952 35.232 14.568 38.472L24.144 35.916C24.144 36.396 23.904 37.056 23.424 37.896C22.968 38.712 22.404 39.432 21.732 40.056C21.06 40.656 19.992 41.292 18.528 41.964C17.088 42.612 15.396 43.104 13.452 43.44ZM32.9449 27.348C32.4889 28.596 32.0209 30.252 31.5409 32.316C33.0529 30.348 34.8769 29.028 37.0129 28.356L40.3249 31.524C40.0849 34.092 39.3169 36.312 38.0209 38.184C36.7249 40.056 35.1049 41.364 33.1609 42.108C32.1769 41.772 31.2049 41.328 30.2449 40.776C30.1009 42.312 30.0289 43.932 30.0289 45.636C28.3489 46.02 26.3209 46.212 23.9449 46.212C24.3529 42.348 25.0009 38.592 25.8889 34.944L26.3569 33.036L26.5369 29.22C27.2329 28.812 28.1089 28.452 29.1649 28.14C30.2449 27.828 31.1449 27.624 31.8649 27.528L32.9449 27.348ZM42.0107 25.944C42.1307 25.872 42.2987 25.776 42.5147 25.656C42.7307 25.512 43.2107 25.284 43.9547 24.972C44.7227 24.636 45.5147 24.336 46.3307 24.072C48.5147 23.424 50.8907 23.1 53.4587 23.1C53.9147 23.316 54.5027 23.712 55.2227 24.288C55.9667 24.864 56.6147 25.428 57.1667 25.98C57.7187 26.532 58.2947 27.252 58.8947 28.14C59.4947 29.028 59.9387 29.94 60.2267 30.876C59.5787 33.18 58.1867 34.992 56.0507 36.312C53.9387 37.608 51.1307 38.316 47.6267 38.436C47.0507 39.9 46.6427 41.484 46.4027 43.188L46.2587 44.016C45.4907 43.728 44.4947 43.188 43.2707 42.396C42.0467 41.604 41.1227 40.848 40.4987 40.128L42.8747 30.516C42.5387 29.34 42.2747 28.056 42.0827 26.664L42.0107 25.944Z"/>
</mask>
<path d="M13.452 43.44C10.548 42.288 8.58 40.824 7.548 39.048C7.548 36.408 8.328 33.528 9.888 30.408C11.448 27.288 13.2 25.224 15.144 24.216C15.96 24.216 16.872 24.264 17.88 24.36C20.544 24.216 22.824 23.928 24.72 23.496L25.692 23.28C24.732 26.448 23.964 29.82 23.388 33.396C21.276 32.46 19.452 31.176 17.916 29.544C16.068 32.256 14.952 35.232 14.568 38.472L24.144 35.916C24.144 36.396 23.904 37.056 23.424 37.896C22.968 38.712 22.404 39.432 21.732 40.056C21.06 40.656 19.992 41.292 18.528 41.964C17.088 42.612 15.396 43.104 13.452 43.44ZM32.9449 27.348C32.4889 28.596 32.0209 30.252 31.5409 32.316C33.0529 30.348 34.8769 29.028 37.0129 28.356L40.3249 31.524C40.0849 34.092 39.3169 36.312 38.0209 38.184C36.7249 40.056 35.1049 41.364 33.1609 42.108C32.1769 41.772 31.2049 41.328 30.2449 40.776C30.1009 42.312 30.0289 43.932 30.0289 45.636C28.3489 46.02 26.3209 46.212 23.9449 46.212C24.3529 42.348 25.0009 38.592 25.8889 34.944L26.3569 33.036L26.5369 29.22C27.2329 28.812 28.1089 28.452 29.1649 28.14C30.2449 27.828 31.1449 27.624 31.8649 27.528L32.9449 27.348ZM42.0107 25.944C42.1307 25.872 42.2987 25.776 42.5147 25.656C42.7307 25.512 43.2107 25.284 43.9547 24.972C44.7227 24.636 45.5147 24.336 46.3307 24.072C48.5147 23.424 50.8907 23.1 53.4587 23.1C53.9147 23.316 54.5027 23.712 55.2227 24.288C55.9667 24.864 56.6147 25.428 57.1667 25.98C57.7187 26.532 58.2947 27.252 58.8947 28.14C59.4947 29.028 59.9387 29.94 60.2267 30.876C59.5787 33.18 58.1867 34.992 56.0507 36.312C53.9387 37.608 51.1307 38.316 47.6267 38.436C47.0507 39.9 46.6427 41.484 46.4027 43.188L46.2587 44.016C45.4907 43.728 44.4947 43.188 43.2707 42.396C42.0467 41.604 41.1227 40.848 40.4987 40.128L42.8747 30.516C42.5387 29.34 42.2747 28.056 42.0827 26.664L42.0107 25.944Z" fill="#24CB35"/>
<path d="M13.452 43.44C10.548 42.288 8.58 40.824 7.548 39.048C7.548 36.408 8.328 33.528 9.888 30.408C11.448 27.288 13.2 25.224 15.144 24.216C15.96 24.216 16.872 24.264 17.88 24.36C20.544 24.216 22.824 23.928 24.72 23.496L25.692 23.28C24.732 26.448 23.964 29.82 23.388 33.396C21.276 32.46 19.452 31.176 17.916 29.544C16.068 32.256 14.952 35.232 14.568 38.472L24.144 35.916C24.144 36.396 23.904 37.056 23.424 37.896C22.968 38.712 22.404 39.432 21.732 40.056C21.06 40.656 19.992 41.292 18.528 41.964C17.088 42.612 15.396 43.104 13.452 43.44ZM32.9449 27.348C32.4889 28.596 32.0209 30.252 31.5409 32.316C33.0529 30.348 34.8769 29.028 37.0129 28.356L40.3249 31.524C40.0849 34.092 39.3169 36.312 38.0209 38.184C36.7249 40.056 35.1049 41.364 33.1609 42.108C32.1769 41.772 31.2049 41.328 30.2449 40.776C30.1009 42.312 30.0289 43.932 30.0289 45.636C28.3489 46.02 26.3209 46.212 23.9449 46.212C24.3529 42.348 25.0009 38.592 25.8889 34.944L26.3569 33.036L26.5369 29.22C27.2329 28.812 28.1089 28.452 29.1649 28.14C30.2449 27.828 31.1449 27.624 31.8649 27.528L32.9449 27.348ZM42.0107 25.944C42.1307 25.872 42.2987 25.776 42.5147 25.656C42.7307 25.512 43.2107 25.284 43.9547 24.972C44.7227 24.636 45.5147 24.336 46.3307 24.072C48.5147 23.424 50.8907 23.1 53.4587 23.1C53.9147 23.316 54.5027 23.712 55.2227 24.288C55.9667 24.864 56.6147 25.428 57.1667 25.98C57.7187 26.532 58.2947 27.252 58.8947 28.14C59.4947 29.028 59.9387 29.94 60.2267 30.876C59.5787 33.18 58.1867 34.992 56.0507 36.312C53.9387 37.608 51.1307 38.316 47.6267 38.436C47.0507 39.9 46.6427 41.484 46.4027 43.188L46.2587 44.016C45.4907 43.728 44.4947 43.188 43.2707 42.396C42.0467 41.604 41.1227 40.848 40.4987 40.128L42.8747 30.516C42.5387 29.34 42.2747 28.056 42.0827 26.664L42.0107 25.944Z" fill="#A017DB" mask="url(#path-1-outside-1_0_1)"/>
</svg>
